<svg id="Horizontal_-_Black_Text" data-name="Horizontal - Black Text" xmlns="http://www.w3.org/2000/svg" xmlns:xlink="http://www.w3.org/1999/xlink" width="4194" height="762" viewBox="0 0 4194 762">
  <defs>
    <style>
      .cls-1, .cls-2, .cls-3, .cls-4 {
        fill-rule: evenodd;
      }

      .cls-2 {
        fill: #e1ad21;
      }

      .cls-3 {
        fill: url(#linear-gradient);
      }

      .cls-4 {
        fill: url(#linear-gradient-2);
      }
    </style>
    <linearGradient id="linear-gradient" x1="282.609" y1="416.031" x2="282.609" y2="708.094" gradientUnits="userSpaceOnUse">
      <stop offset="0" stop-color="#9d6c32"/>
      <stop offset="0.542" stop-color="#9d6c32" stop-opacity="0"/>
    </linearGradient>
    <linearGradient id="linear-gradient-2" x1="282.609" y1="315.219" x2="282.609" y2="53.594" xlink:href="#linear-gradient"/>
  </defs>
  <path id="TEXT" class="cls-1" d="M1050.9,706.632V319.092H959.564v387.54H1050.9Zm404.03-387.54H1363.6v155.4l91.33,78.015V319.092Zm-320.31,0v387.54h91.34v-205.5l228.97,205.5V583.584Zm365.98,0v92.6h79.28V706.632h91.34V411.7h79.28v-92.6H1500.6Zm296.2,143.345v92.6h240.39v-92.6H1796.8Zm275.91,244.195V615.3H1796.8v91.335h275.91ZM1796.8,411.7h275.91v-92.6H1796.8v92.6Zm426.23-91.97H2131.7V583.584h91.33V319.726ZM2131.7,615.3v91.335h232.14V615.3H2131.7Zm369.78-295.571h-91.34V583.584h91.34V319.726ZM2410.14,615.3v91.335h232.15V615.3H2410.14Zm371.05,91.335V319.092h-91.33v387.54h91.33Zm62.8-387.54v92.6h84.36a99.2,99.2,0,0,1,39,7.908,104.972,104.972,0,0,1,32.67,21.5,102.341,102.341,0,0,1,22.2,32.249,98.294,98.294,0,0,1,8.24,40.147,96.782,96.782,0,0,1-8.24,39.523,102.341,102.341,0,0,1-22.2,32.249,109.591,109.591,0,0,1-32.67,21.813,95.943,95.943,0,0,1-39,8.216h-84.36v91.335h84.36a187.358,187.358,0,0,0,75.16-15.222,195.1,195.1,0,0,0,103.07-103.069,187.463,187.463,0,0,0,15.22-75.162q0-40.582-15.22-75.795a192.722,192.722,0,0,0-41.55-61.208,203.953,203.953,0,0,0-61.52-41.544,184.109,184.109,0,0,0-75.16-15.54h-84.36Zm311.43,143.345v92.6H3395.8v-92.6H3155.42Zm275.9,244.195V615.3h-275.9v91.335h275.9ZM3155.42,411.7h275.9v-92.6h-275.9v92.6Zm593.04-26.005a205.8,205.8,0,0,0-68.5-49.474q-38.7-17.125-77.38-17.125a191.087,191.087,0,0,0-24.42,1.6,174.711,174.711,0,0,0-25.69,5.4q-26.01,8.889-39.96,18.75a89.136,89.136,0,0,0-23.47,24.469q-17.115,24.8-17.12,60.385,0,21.615,9.19,43.864t30.13,38.136a154.165,154.165,0,0,0,31.72,18.75q17.745,7.953,34.25,15.57,12.675,5.084,24.1,9.851a160.645,160.645,0,0,1,19.98,9.861,65.58,65.58,0,0,1,14.27,11.119q5.7,6.036,6.34,12.4-0.63,8.906-8.88,16.848t-30.44,7.939q-14.6,0-41.23-6.977h0.63q-8.88-2.528-19.66-11.1a215.21,215.21,0,0,1-22.2-20.614l-59.62,70.82q30.45,30.237,66.92,45.361a191.354,191.354,0,0,0,73.89,15.113,176.845,176.845,0,0,0,46.3-6.342q25.995-9.514,44.08-19.98t28.86-25.688a105.856,105.856,0,0,0,17.44-33.616,125.371,125.371,0,0,0,6.03-38.057,115.285,115.285,0,0,0-9.2-44.4,102.93,102.93,0,0,0-28.22-38.69,181.9,181.9,0,0,0-38.06-20.931q-21.57-8.875-40.59-16.492-12.06-3.806-22.52-7.294a112.419,112.419,0,0,1-18.08-7.611,59.649,59.649,0,0,1-12.36-8.563q-4.77-4.429-4.76-8.879,0-6.333,7.29-12.369t25.06-6.025a97.358,97.358,0,0,1,16.17,1.585q9.2,1.591,20.61,4.123a96.837,96.837,0,0,1,21.89,12.051,156.125,156.125,0,0,1,21.25,19.028Zm135.1-66.6h-91.34v387.54h91.34V319.092Zm160.47,0-135.1,197.259,135.1,190.281h107.19l-137-193.453,137-194.087H4044.03Z"/>
  <g id="Logo">
    <path id="LOGO-2" data-name="LOGO" class="cls-2" d="M232.892,315.217H36.019V708.094H332.306V416.044H459.752v292.05H886.094V53.588h-653.2V315.217Zm99.414-163.844V315.217H560.145V606.4H785.7V151.373h-453.4ZM133.8,416.044h99.088V606.4H133.8V416.044Z"/>
    <g id="Shadow">
      <path class="cls-3" d="M232.892,416.044h99.414v292.05H232.892V416.044Z"/>
      <path class="cls-4" d="M232.892,53.588h99.414V315.217H232.892V53.588Z"/>
    </g>
  </g>
</svg>
